<svg viewBox="0 0 1024 1024" version="1.1" xmlns="http://www.w3.org/2000/svg" width="200" height="200">
  <path
    d="M162.816 960c-54.784 0-98.816-44.544-98.816-98.816V162.816c0-54.784 44.544-98.816 98.816-98.816h620.032c54.784 0 98.816 44.544 98.816 98.816v224.256c0 14.336-11.776 26.112-26.112 26.112s-26.112-11.776-26.112-26.112V162.816c0-25.6-20.992-46.592-46.592-46.592H162.816c-25.6 0-46.592 20.992-46.592 46.592v697.856c0 25.6 20.992 46.592 46.592 46.592h255.488c14.336 0 26.112 11.776 26.112 26.112s-11.776 26.112-26.112 26.112l-255.488 0.512z m66.048-404.48c-14.336 0-26.112-11.776-26.112-26.112s11.776-26.112 26.112-26.112h141.824c14.336 0 26.112 11.776 26.112 26.112s-11.776 26.112-26.112 26.112H228.864z m0-141.824c-14.336 0-26.112-11.776-26.112-26.112s11.776-26.112 26.112-26.112h251.904c14.336 0 26.112 11.776 26.112 26.112s-11.776 26.112-26.112 26.112H228.864z m0-142.336c-14.336 0-26.112-11.776-26.112-26.112s11.776-26.112 26.112-26.112H716.8c14.336 0 26.112 11.776 26.112 26.112S731.136 271.36 716.8 271.36H228.864z"
    fill="#0F766E" stroke="#0F766E" stroke-width="32" stroke-linecap="round" stroke-linejoin="round"></path>
  <path
    d="M681.472 961.024c-130.56 0-244.736-88.064-278.016-214.528l-0.512-2.56 0.512-2.56c33.792-124.928 147.968-212.48 277.504-212.48h1.024c130.56 0 244.736 88.064 278.016 214.528l0.512 2.56-0.512 2.56c-33.792 124.928-147.968 212.48-277.504 212.48h-1.024z"
    fill="#FF8000"></path>
  <circle cx="682" cy="746" r="96" fill="#0F766E"></circle>
</svg>